<svg width="14" height="14" viewBox="0 0 14 14" fill="none" xmlns="http://www.w3.org/2000/svg">
<path d="M2.33341 1.74992H9.68026C10.223 1.74992 10.7339 1.95687 11.103 2.31028C11.4703 2.66206 11.6667 3.12812 11.6667 3.60286V12.2499H4.3199C3.77715 12.2499 3.26625 12.043 2.89721 11.6896C2.52988 11.3378 2.33341 10.8717 2.33341 10.397V1.74992ZM1.75008 0.583252C1.42792 0.583252 1.16675 0.844419 1.16675 1.16659V10.397C1.16675 11.1978 1.49895 11.9659 2.09029 12.5322C2.68162 13.0984 3.48363 13.4166 4.3199 13.4166H12.2501C12.5722 13.4166 12.8334 13.1554 12.8334 12.8333V3.60286C12.8334 2.80201 12.5012 2.03396 11.9099 1.46767C11.3185 0.901388 10.5165 0.583252 9.68026 0.583252H1.75008Z" fill="currentColor"/>
<path d="M3.93758 4.66659C3.93758 4.34442 4.19875 4.08325 4.52091 4.08325H9.47925C9.80141 4.08325 10.0626 4.34442 10.0626 4.66659C10.0626 4.98875 9.80141 5.24992 9.47925 5.24992H4.52091C4.19875 5.24992 3.93758 4.98875 3.93758 4.66659Z" fill="currentColor"/>
<path d="M3.93758 6.99992C3.93758 6.67775 4.19875 6.41659 4.52091 6.41659H9.47925C9.80141 6.41659 10.0626 6.67775 10.0626 6.99992C10.0626 7.32208 9.80141 7.58325 9.47925 7.58325H4.52091C4.19875 7.58325 3.93758 7.32208 3.93758 6.99992Z" fill="currentColor"/>
<path d="M3.93758 9.33325C3.93758 9.01109 4.19875 8.74992 4.52091 8.74992H7.14592C7.46808 8.74992 7.72925 9.01109 7.72925 9.33325C7.72925 9.65542 7.46808 9.91658 7.14592 9.91658H4.52091C4.19875 9.91658 3.93758 9.65542 3.93758 9.33325Z" fill="currentColor"/>
</svg>
