<svg width="14" height="14" viewBox="0 0 14 14" fill="none" xmlns="http://www.w3.org/2000/svg">
<path d="M12.6561 7.7902C12.9445 7.63297 13.125 7.33082 13.125 6.99996C13.125 6.6691 12.9445 6.36832 12.6561 6.21109L2.19434 0.546836C1.91543 0.395078 1.58594 0.401914 1.3125 0.564609C1.03906 0.727305 0.875 1.01578 0.875 1.3357L2.02925 5.84405L6.93674 6.56246C7.21805 6.56246 7.44533 6.75796 7.44533 6.99996C7.44533 7.24195 7.21805 7.43746 6.93674 7.43746C4.17109 7.8429 2.53591 8.08073 2.03121 8.15095L0.875 12.6642C0.875 12.9841 1.03906 13.2726 1.3125 13.4367C1.58594 13.5994 1.91543 13.6062 2.19434 13.4545L12.6561 7.7902Z" fill="white"/>
</svg>
