<svg width="16" height="16" viewBox="0 0 16 16" fill="none" xmlns="http://www.w3.org/2000/svg">
<path d="M2.88555 13.1557L2.67814 12.9298C1.95197 12.1388 1.40716 11.1954 1.08777 10.1651L0.997726 9.87469L2.3631 7.99996L0.997726 6.12523L1.08777 5.83478C1.40716 4.80448 1.95197 3.86108 2.67814 3.07013L2.88555 2.8442L5.1801 3.095L6.11207 0.970443L6.41092 0.903165C6.92875 0.786583 7.46074 0.727234 7.99998 0.727234C8.53922 0.727234 9.07121 0.786583 9.58905 0.903165L9.88789 0.970443L10.8199 3.095L13.1144 2.8442L13.3218 3.07013C14.048 3.86108 14.5928 4.80448 14.9122 5.83478L15.0022 6.12523L13.6369 7.99996L15.0022 9.87469L14.9122 10.1651C14.5928 11.1954 14.048 12.1388 13.3218 12.9298L13.1144 13.1557L10.8199 12.9049L9.88789 15.0295L9.58905 15.0968C9.07121 15.2133 8.53922 15.2727 7.99998 15.2727C7.46074 15.2727 6.92875 15.2133 6.41092 15.0968L6.11207 15.0295L5.1801 12.9049L2.88555 13.1557ZM5.20895 11.6824C5.6397 11.6353 6.05116 11.8732 6.22523 12.2701L6.9722 13.9728C7.30909 14.031 7.6525 14.0605 7.99998 14.0605C8.34746 14.0605 8.69087 14.031 9.02777 13.9728L9.77473 12.2701C9.9488 11.8732 10.3603 11.6353 10.791 11.6824L12.6272 11.8831C13.0706 11.3493 13.4203 10.7428 13.659 10.0892L12.5627 8.58397C12.3092 8.23587 12.3092 7.76398 12.5627 7.41588L13.659 5.91067C13.4203 5.25706 13.0706 4.65054 12.6272 4.11676L10.791 4.31746C10.3603 4.36454 9.9488 4.12661 9.77473 3.7298L9.02777 2.02701C8.69087 1.96883 8.34746 1.93932 7.99998 1.93932C7.6525 1.93932 7.30909 1.96883 6.9722 2.02701L6.22523 3.7298C6.05116 4.12661 5.6397 4.36454 5.20895 4.31746L3.3728 4.11676C2.92934 4.65054 2.57969 5.25706 2.341 5.91067L3.43726 7.41588C3.69077 7.76398 3.69077 8.23587 3.43726 8.58397L2.341 10.0892C2.57969 10.7428 2.92934 11.3493 3.3728 11.8831L5.20895 11.6824ZM7.99998 11.0303C6.33212 11.0303 4.98123 9.6729 4.98123 7.99996C4.98123 6.32701 6.33212 4.96965 7.99998 4.96965C9.66785 4.96965 11.0187 6.32701 11.0187 7.99996C11.0187 9.6729 9.66785 11.0303 7.99998 11.0303ZM7.99998 9.81818C8.99711 9.81818 9.80662 9.0048 9.80662 8C9.80662 6.9952 8.99711 6.18182 7.99998 6.18182C7.00285 6.18182 6.19335 6.9952 6.19335 8C6.19335 9.0048 7.00285 9.81818 7.99998 9.81818Z" fill="currentColor"/>
</svg>
