<svg width="100" height="17" viewBox="0 0 100 17" fill="none" xmlns="http://www.w3.org/2000/svg">
<path opacity="0.9" d="M2.29999 10.1659V7.61295H6.04899C6.53966 7.61295 6.98433 7.51328 7.38299 7.31394C7.78166 7.11461 8.09599 6.83094 8.32599 6.46294C8.55599 6.07961 8.67099 5.61961 8.67099 5.08294C8.67099 4.56161 8.55599 4.10928 8.32599 3.72595C8.09599 3.34261 7.78166 3.05128 7.38299 2.85194C6.98433 2.65261 6.53966 2.55295 6.04899 2.55295H2.29999V-5.48959e-05H6.37099C7.39833 -5.48959e-05 8.31833 0.206945 9.13099 0.620944C9.95899 1.03494 10.6107 1.62528 11.086 2.39194C11.5613 3.14328 11.799 4.04028 11.799 5.08294C11.799 6.12561 11.5613 7.03028 11.086 7.79694C10.6107 8.54828 9.95899 9.13094 9.13099 9.54494C8.31833 9.95895 7.39833 10.1659 6.37099 10.1659H2.29999ZM-5.7593e-06 16.1689V-5.48959e-05H3.12799V16.1689H-5.7593e-06ZM18.4402 16.3989C17.4282 16.3989 16.5159 16.1459 15.7032 15.6399C14.8906 15.1339 14.2542 14.4439 13.7942 13.5699C13.3342 12.6959 13.1042 11.7146 13.1042 10.6259C13.1042 9.52194 13.3342 8.53294 13.7942 7.65895C14.2542 6.78495 14.8906 6.09495 15.7032 5.58895C16.5159 5.08294 17.4282 4.82994 18.4402 4.82994C19.2376 4.82994 19.9506 4.99094 20.5792 5.31294C21.2079 5.63494 21.7062 6.08728 22.0742 6.66994C22.4576 7.23728 22.6646 7.88128 22.6952 8.60194V12.6039C22.6646 13.3399 22.4576 13.9916 22.0742 14.5589C21.7062 15.1263 21.2079 15.5786 20.5792 15.9159C19.9506 16.2379 19.2376 16.3989 18.4402 16.3989ZM18.9922 13.6159C19.8356 13.6159 20.5179 13.3399 21.0392 12.7879C21.5606 12.2206 21.8212 11.4923 21.8212 10.6029C21.8212 10.0203 21.6986 9.50661 21.4532 9.06194C21.2232 8.60194 20.8936 8.24928 20.4642 8.00394C20.0502 7.74328 19.5596 7.61295 18.9922 7.61295C18.4402 7.61295 17.9496 7.74328 17.5202 8.00394C17.1062 8.24928 16.7766 8.60194 16.5312 9.06194C16.3012 9.50661 16.1862 10.0203 16.1862 10.6029C16.1862 11.2009 16.3012 11.7299 16.5312 12.1899C16.7766 12.6346 17.1062 12.9873 17.5202 13.2479C17.9496 13.4933 18.4402 13.6159 18.9922 13.6159ZM21.6602 16.1689V13.1789L22.1432 10.4649L21.6602 7.79694V5.05995H24.6502V16.1689H21.6602ZM29.4087 16.1689V0.436945H32.4217V16.1689H29.4087ZM26.8097 7.70494V5.05995H35.0207V7.70494H26.8097ZM42.2187 16.3989C41.0533 16.3989 40.0183 16.1536 39.1137 15.6629C38.209 15.1569 37.4883 14.4669 36.9517 13.5929C36.4303 12.7189 36.1697 11.7223 36.1697 10.6029C36.1697 9.49895 36.4227 8.51761 36.9287 7.65895C37.45 6.78495 38.1553 6.09495 39.0447 5.58895C39.934 5.06761 40.923 4.80694 42.0117 4.80694C43.085 4.80694 44.028 5.05228 44.8407 5.54295C45.6687 6.01828 46.3127 6.67761 46.7727 7.52094C47.248 8.34894 47.4857 9.29194 47.4857 10.3499C47.4857 10.5493 47.4703 10.7563 47.4397 10.9709C47.4243 11.1703 47.386 11.4003 47.3247 11.6609L37.9867 11.6839V9.42995L45.9217 9.40695L44.7027 10.3499C44.672 9.69061 44.5493 9.13861 44.3347 8.69394C44.1353 8.24928 43.8363 7.91195 43.4377 7.68194C43.0543 7.43661 42.579 7.31394 42.0117 7.31394C41.4137 7.31394 40.8923 7.45194 40.4477 7.72794C40.003 7.98861 39.658 8.36428 39.4127 8.85494C39.1827 9.33028 39.0677 9.89761 39.0677 10.5569C39.0677 11.2316 39.1903 11.8219 39.4357 12.3279C39.6963 12.8186 40.0643 13.2019 40.5397 13.4779C41.015 13.7386 41.567 13.8689 42.1957 13.8689C42.763 13.8689 43.2767 13.7769 43.7367 13.5929C44.1967 13.3936 44.5953 13.1023 44.9327 12.7189L46.7037 14.4899C46.167 15.1186 45.5077 15.5939 44.7257 15.9159C43.959 16.2379 43.1233 16.3989 42.2187 16.3989ZM57.284 16.1689V9.79795C57.284 9.13861 57.077 8.60194 56.663 8.18795C56.249 7.77395 55.7123 7.56695 55.053 7.56695C54.6237 7.56695 54.2403 7.65894 53.903 7.84294C53.5657 8.02694 53.2973 8.28761 53.098 8.62495C52.914 8.96228 52.822 9.35328 52.822 9.79795L51.649 9.19995C51.649 8.32595 51.833 7.56695 52.201 6.92295C52.5843 6.26361 53.1057 5.74994 53.765 5.38195C54.4397 5.01394 55.1987 4.82994 56.042 4.82994C56.8547 4.82994 57.583 5.03694 58.227 5.45094C58.871 5.84961 59.377 6.37861 59.745 7.03794C60.113 7.68194 60.297 8.37961 60.297 9.13094V16.1689H57.284ZM49.809 16.1689V5.05995H52.822V16.1689H49.809ZM64.6823 16.1689V0.436945H67.6953V16.1689H64.6823ZM62.0833 7.70494V5.05995H70.2943V7.70494H62.0833ZM73.7326 16.3989C73.1806 16.3989 72.7283 16.2149 72.3756 15.8469C72.0229 15.4789 71.8466 15.0266 71.8466 14.4899C71.8466 13.9533 72.0229 13.5009 72.3756 13.1329C72.7283 12.7649 73.1806 12.5809 73.7326 12.5809C74.2693 12.5809 74.7139 12.7649 75.0666 13.1329C75.4193 13.5009 75.5956 13.9533 75.5956 14.4899C75.5956 15.0266 75.4193 15.4789 75.0666 15.8469C74.7139 16.2149 74.2693 16.3989 73.7326 16.3989ZM78.0318 16.1689L84.5408 -5.48959e-05H87.0938L93.5798 16.1689H90.2448L85.2308 2.89794H86.3808L81.2978 16.1689H78.0318ZM81.4818 13.1559V10.5339H90.1758V13.1559H81.4818ZM95.9495 16.1689V-5.48959e-05H99.0775V16.1689H95.9495Z" fill="#1F2329"/>
</svg>
