<svg width="20" height="19" viewBox="0 0 20 19" fill="none" xmlns="http://www.w3.org/2000/svg">
<path d="M11.3881 18.1593V14.7477C11.3881 14.286 11.7545 13.9112 12.2078 13.9112C13.8226 13.9112 14.7003 12.2191 14.8225 8.8774H12.2078C11.7545 8.8774 11.3881 8.50256 11.3881 8.04091L11.3881 0.838609C11.3881 0.376951 11.7545 0.00211767 12.2078 0.00211767L19.1802 0.00211767C19.6336 0.00211767 20 0.376951 20 0.838609V8.04091C20 9.64189 19.8427 11.1116 19.5321 12.4097C19.2133 13.7396 18.7227 14.9044 18.0768 15.8679C17.4123 16.859 16.5801 17.6362 15.605 18.1783C14.6217 18.7226 13.481 19 12.2099 19C11.7545 18.9958 11.3881 18.6209 11.3881 18.1593ZM0.819791 13.9091C0.366422 13.9091 0 14.2839 0 14.7455L0 18.1572C0 18.6188 0.366422 18.9936 0.819791 18.9936C2.08881 18.9936 3.23155 18.7162 4.21488 18.172C5.18994 17.6298 6.02215 16.8527 6.68668 15.8616C7.33257 14.898 7.82321 13.7354 8.14201 12.4034C8.45254 11.1052 8.60988 9.63553 8.60988 8.03455L8.60988 0.836491C8.60988 0.374833 8.24345 0 7.79008 0L0.817721 0C0.366422 0 0 0.374833 0 0.836491L0 8.03879C0 8.50045 0.366422 8.87528 0.819791 8.87528H3.39716C3.27709 12.217 2.41176 13.9091 0.819791 13.9091Z" fill="url(#paint0_linear_1514_141376)" fill-opacity="0.06"/>
<defs>
<linearGradient id="paint0_linear_1514_141376" x1="0" y1="0" x2="-9.34219e-07" y2="19" gradientUnits="userSpaceOnUse">
<stop stop-color="#3370FF"/>
<stop offset="1" stop-color="#3370FF" stop-opacity="0.3"/>
</linearGradient>
</defs>
</svg>
